<svg width="36" height="36" viewBox="0 0 36 36" fill="none" xmlns="http://www.w3.org/2000/svg">
<g clip-path="url(#clip0)">
<path d="M10.8001 3.6004H3.00024V4.80039H10.8001V3.6004Z" fill="#8AB1F9"/>
<path d="M10.8001 6.00037H3.00024V7.20035H10.8001V6.00037Z" fill="#8AB1F9"/>
<path d="M8.40018 8.40036H3.00024V9.60035H8.40018V8.40036Z" fill="#8AB1F9"/>
<path d="M8.40018 10.8003H3.00024V12.0003H8.40018V10.8003Z" fill="#8AB1F9"/>
<path d="M35.9998 34.8H0.000244141V36H35.9998V34.8Z" fill="#8AB1F9"/>
<path d="M34.7367 5.13168L32.3367 0.331738C32.1888 0.0351916 31.8286 -0.0852569 31.532 0.0627162C31.5319 0.0627912 31.5317 0.0628662 31.5316 0.0629412L26.7316 2.46291C26.4351 2.61103 26.3147 2.97156 26.4628 3.2681C26.6109 3.56465 26.9715 3.68502 27.268 3.5369L30.7444 1.79992L29.7958 4.50829C25.6264 16.3827 14.8873 24.7133 2.34912 25.7996L2.45112 26.9996C15.4617 25.8725 26.6049 17.2269 30.9292 4.90428L31.8976 2.13712L33.6627 5.66807C33.8109 5.96462 34.1714 6.08499 34.4679 5.93687C34.7645 5.78874 34.8848 5.4283 34.7367 5.13168Z" fill="#8AB1F9"/>
<path d="M7.20009 28.8001H3.00014C2.66879 28.8001 2.40015 29.0688 2.40015 29.4001V33.0001C2.40015 33.3314 2.66879 33.6 3.00014 33.6H7.20009C7.53143 33.6 7.80008 33.3314 7.80008 33.0001V29.4001C7.80008 29.0688 7.53143 28.8001 7.20009 28.8001ZM6.60009 32.4001H3.60013V30.0001H6.60009V32.4001Z" fill="#8AB1F9"/>
<path d="M13.8002 27.0002H9.60024C9.26889 27.0002 9.00024 27.2688 9.00024 27.6001V33.0001C9.00024 33.3314 9.26889 33.6001 9.60024 33.6001H13.8002C14.1315 33.6001 14.4002 33.3314 14.4002 33.0001V27.6001C14.4002 27.2688 14.1315 27.0002 13.8002 27.0002ZM13.2002 32.4001H10.2002V28.2001H13.2002V32.4001Z" fill="#8AB1F9"/>
<path d="M20.4 24.0002H16.2001C15.8687 24.0002 15.6001 24.2688 15.6001 24.6001V33C15.6001 33.3314 15.8687 33.6 16.2001 33.6H20.4C20.7314 33.6 21 33.3314 21 33V24.6001C21 24.2688 20.7314 24.0002 20.4 24.0002ZM19.8 32.4H16.8001V25.2001H19.8V32.4Z" fill="#8AB1F9"/>
<path d="M26.9999 19.8002H22.7999C22.4686 19.8002 22.2 20.0688 22.2 20.4002V33C22.2 33.3314 22.4686 33.6 22.7999 33.6H26.9999C27.3312 33.6 27.5999 33.3314 27.5999 33V20.4002C27.5999 20.0688 27.3312 19.8002 26.9999 19.8002ZM26.3999 32.4H23.3999V21.0002H26.3999V32.4Z" fill="#8AB1F9"/>
<path d="M33.5997 11.4003H29.3998C29.0685 11.4003 28.7998 11.669 28.7998 12.0003V33.0001C28.7998 33.3314 29.0685 33.6001 29.3998 33.6001H33.5997C33.9311 33.6001 34.1997 33.3314 34.1997 33.0001V12.0003C34.1997 11.669 33.9311 11.4003 33.5997 11.4003ZM32.9998 32.4001H29.9998V12.6003H32.9998V32.4001Z" fill="#8AB1F9"/>
</g>
<defs>
<clipPath id="clip0">
<rect width="36" height="36" fill="white"/>
</clipPath>
</defs>
</svg>
