<svg width="36" height="36" viewBox="0 0 36 36" fill="none" xmlns="http://www.w3.org/2000/svg">
<g clip-path="url(#clip0)">
<path d="M35.5742 8.6904C35.2681 8.35627 34.8327 8.16467 34.3796 8.16467H33.8989C32.6382 8.16467 31.6045 9.11164 31.4943 10.3674L30.9742 16.2933C30.9282 16.8184 30.4958 17.2145 29.9685 17.2145H25.4667C24.0242 17.2145 22.8506 18.3881 22.8506 19.8306V20.0906C22.8506 20.9621 23.5595 21.671 24.4311 21.671H25.396L24.4458 24.7743C24.4451 24.7766 24.4444 24.7789 24.4437 24.7812L23.7173 27.1533C23.632 27.4318 23.7887 27.7266 24.0671 27.8119C24.1186 27.8277 24.1706 27.8352 24.2217 27.8352C24.4474 27.8352 24.6563 27.6892 24.7257 27.4621L25.3383 25.4617H32.5714L33.1839 27.4621C33.2534 27.6892 33.4622 27.8352 33.6879 27.8352C33.7391 27.8352 33.7911 27.8277 33.8425 27.8119C34.121 27.7266 34.2776 27.4317 34.1924 27.1533L32.4685 21.5237C32.7712 21.438 33.0635 21.316 33.3377 21.1589C33.5903 21.014 33.6777 20.6918 33.5329 20.4392C33.388 20.1865 33.0657 20.0991 32.8131 20.244C32.3881 20.4876 31.9033 20.6164 31.4111 20.6164H26.1094C26.1076 20.6164 26.1058 20.6164 26.1042 20.6164H24.4312C24.1413 20.6164 23.9054 20.3806 23.9054 20.0906V19.8307C23.9054 18.9697 24.6059 18.2693 25.4668 18.2693H29.9687C31.0468 18.2693 31.9308 17.4594 32.025 16.3855L32.5451 10.4596C32.6071 9.75254 33.1891 9.21929 33.8989 9.21929H34.3797C34.5401 9.21929 34.6883 9.28447 34.7966 9.4028C34.905 9.52114 34.9571 9.67435 34.943 9.83424L34.2229 18.0405C34.2051 18.2428 34.1657 18.4431 34.1057 18.6356C34.0191 18.9137 34.1744 19.2093 34.4524 19.2959C34.7309 19.3825 35.0261 19.2272 35.1128 18.9493C35.1951 18.6847 35.2492 18.41 35.2736 18.1326L35.9938 9.92642C36.0331 9.47508 35.8803 9.02452 35.5742 8.6904ZM26.4988 21.6711H31.4105L32.2482 24.407H25.661L26.4988 21.6711Z" fill="#8AB1F9"/>
<path d="M10.5337 17.2155H6.03186C5.50459 17.2155 5.07231 16.8195 5.02618 16.2943L4.50615 10.3684C4.39597 9.11265 3.36224 8.16568 2.10161 8.16568H1.62088C1.16779 8.16568 0.732346 8.35728 0.426276 8.69141C0.120207 9.02553 -0.0326524 9.47609 0.00686318 9.92757L0.727002 18.1338C0.81201 19.1022 1.25357 19.9971 1.97041 20.6539C2.42076 21.0665 2.95548 21.3624 3.53176 21.5255L1.80813 27.1544C1.72284 27.4329 1.87949 27.7277 2.15793 27.813C2.2094 27.8287 2.26143 27.8363 2.31255 27.8363C2.53818 27.8363 2.74708 27.6902 2.81655 27.4632L3.42911 25.4627H10.6621L11.2747 27.4632C11.3442 27.6902 11.553 27.8363 11.7787 27.8363C11.8299 27.8363 11.8819 27.8287 11.9333 27.813C12.2118 27.7277 12.3684 27.4328 12.2831 27.1544L11.5568 24.7823C11.5561 24.78 11.5554 24.7777 11.5547 24.7754L10.6045 21.6721H11.5694C12.4409 21.6721 13.1498 20.9632 13.1498 20.0916V19.8317C13.1498 18.3891 11.9762 17.2155 10.5337 17.2155ZM3.75205 24.4079L4.58975 21.6721H9.50142L10.3391 24.4079H3.75205ZM12.0951 20.0916C12.0951 20.3815 11.8593 20.6174 11.5694 20.6174H9.89679C9.89468 20.6174 9.89264 20.6174 9.89053 20.6174H4.58947C4.47669 20.6174 4.36574 20.6101 4.25647 20.5975C4.2564 20.5975 4.25626 20.5975 4.25612 20.5975C2.93678 20.445 1.89658 19.3976 1.77761 18.0415L1.05747 9.83532C1.04341 9.67536 1.09544 9.52215 1.20386 9.40381C1.31221 9.28547 1.46029 9.22029 1.62081 9.22029H2.10154C2.81134 9.22029 3.39339 9.75347 3.4554 10.4606L3.97543 16.3865V16.3864C4.06965 17.4603 4.95369 18.2701 6.03179 18.2701H10.5336C11.3946 18.2701 12.095 18.9706 12.095 19.8316V20.0916H12.0951Z" fill="#8AB1F9"/>
<path d="M22.0041 26.0958C21.7864 25.2593 21.0309 24.6751 20.1665 24.6751H19.8401V15.075H26.3337C26.7078 15.075 27.0579 14.9087 27.2943 14.6188C27.5307 14.3289 27.6231 13.9524 27.5478 13.586C27.3209 12.4832 26.3392 11.6828 25.2135 11.6828H14.2498C13.9585 11.6828 13.7225 11.9189 13.7225 12.2102C13.7225 12.5014 13.9585 12.7375 14.2498 12.7375H25.2135C25.8411 12.7375 26.3882 13.1837 26.5147 13.7984C26.5301 13.8732 26.4976 13.927 26.4769 13.9524C26.4562 13.9778 26.41 14.0204 26.3337 14.0204H9.66592C9.58963 14.0204 9.54351 13.9778 9.52276 13.9524C9.50209 13.927 9.46961 13.8732 9.48501 13.7984C9.61143 13.1837 10.1586 12.7375 10.7862 12.7375H11.7765C12.0678 12.7375 12.3038 12.5014 12.3038 12.2102C12.3038 11.9189 12.0678 11.6828 11.7765 11.6828H10.7862C9.66036 11.6828 8.67866 12.4832 8.45191 13.586C8.3766 13.9525 8.46899 14.329 8.70538 14.6188C8.94177 14.9087 9.29186 15.075 9.66592 15.075H16.1596V24.6751H15.8332C14.9689 24.6751 14.2133 25.2594 13.9957 26.0958L13.8719 26.5716C13.7926 26.8764 13.8576 27.194 14.0502 27.4432C14.2428 27.6923 14.5339 27.8353 14.8488 27.8353H21.1509C21.4658 27.8353 21.7568 27.6924 21.9495 27.4432C22.1421 27.1941 22.207 26.8764 22.1278 26.5716L22.0041 26.0958ZM17.2143 15.075H18.7855V24.6751H17.2143V15.075ZM14.9073 26.7805L15.0164 26.3613C15.1131 25.9895 15.449 25.7298 15.8332 25.7298H20.1664C20.5506 25.7298 20.8865 25.9895 20.9832 26.3613L21.0923 26.7805H14.9073Z" fill="#8AB1F9"/>
</g>
<defs>
<clipPath id="clip0">
<rect width="36" height="36" fill="white"/>
</clipPath>
</defs>
</svg>
