<svg width="48" height="48" viewBox="0 0 48 48" fill="none" xmlns="http://www.w3.org/2000/svg">
<g clip-path="url(#clip0)">
<path d="M22.1489 32.5562C22.5155 32.1896 22.5155 31.5963 22.1489 31.2297C21.782 30.8643 21.1876 30.8643 20.8203 31.2297C20.4541 31.5963 20.4541 32.1896 20.8203 32.5562C21.1876 32.9216 21.782 32.9216 22.1489 32.5562Z" fill="#8AB1F9"/>
<path d="M17.7017 10.3096C17.7017 15.9943 22.3356 20.6195 28.0314 20.6195C33.7272 20.6195 38.3612 15.9943 38.3612 10.3096C38.3612 4.62488 33.7272 0 28.0314 0C22.3356 0 17.7017 4.62488 17.7017 10.3096ZM36.4832 10.3096C36.4832 14.9608 32.6918 18.7449 28.0314 18.7449C23.3711 18.7449 19.5796 14.9608 19.5796 10.3096C19.5796 5.65869 23.3711 1.87463 28.0314 1.87463C32.6918 1.87463 36.4832 5.65869 36.4832 10.3096Z" fill="#8AB1F9"/>
<path d="M10.8637 47.7228C11.2277 48.089 11.8203 48.093 12.189 47.7305L16.7419 43.2539C17.5154 42.4819 17.7506 41.339 17.4104 40.3455L18.3897 39.4028C18.917 38.8945 19.6112 38.6144 20.3451 38.6144H32.8291C35.0438 38.6144 37.1372 37.7655 38.7241 36.2241C38.7894 36.1608 38.2284 36.8203 47.2409 26.0698C48.5776 24.4915 48.3776 22.1213 46.7947 20.7858C45.2217 19.4627 42.8653 19.6527 41.5249 21.204L35.9836 26.8883C35.2838 26.0288 34.2168 25.4931 33.0639 25.4931H22.5922C21.1021 24.8709 19.521 24.5559 17.8896 24.5559C13.3676 24.5559 9.41909 26.6404 7.30009 30.5486C6.40735 30.3798 5.46582 30.6493 4.78847 31.3253L0.321123 35.7971C-0.0436031 36.1622 -0.0443369 36.7529 0.319655 37.1192L10.8637 47.7228ZM17.8892 26.4302C19.3276 26.4302 20.7183 26.7191 22.0234 27.2889C22.1423 27.341 22.2704 27.3677 22.3999 27.3677H33.0639C34.0821 27.3677 34.9422 28.1964 34.9422 29.242C34.9422 30.2758 34.0997 31.1166 33.0639 31.1166H25.4021C24.8836 31.1166 24.4631 31.5363 24.4631 32.0537C24.4631 32.5715 24.8836 32.9909 25.4021 32.9909H33.0639C35.1352 32.9909 36.8201 31.3092 36.8201 29.242C36.8201 29.0772 36.8084 28.9138 36.7871 28.752C42.1476 23.2526 42.9034 22.4799 42.9357 22.4414C43.605 21.653 44.7931 21.553 45.5835 22.218C46.3746 22.8856 46.4747 24.0707 45.8036 24.8635L37.3808 34.9131C36.1509 36.0916 34.536 36.7401 32.8291 36.7401H20.3451C19.1218 36.7401 17.9637 37.207 17.0853 38.0541L16.2872 38.8228L8.93035 31.4806C10.6498 28.2612 13.8762 26.4302 17.8892 26.4302ZM6.11748 32.6499C6.42717 32.3408 6.9027 32.2852 7.28027 32.5181C7.44282 32.617 6.97609 32.1929 15.414 40.6026C15.7893 40.9772 15.7691 41.5741 15.4191 41.9235L11.5377 45.7398L2.3106 36.4603L6.11748 32.6499Z" fill="#8AB1F9"/>
<path d="M26.9046 4.6864V5.78467C25.8116 6.17139 25.0263 7.21326 25.0263 8.4353C25.0263 9.98548 26.29 11.2471 27.8436 11.2471C28.3613 11.2471 28.7826 11.6675 28.7826 12.1842C28.7826 12.7009 28.3613 13.1213 27.8436 13.1213C27.4426 13.1213 27.0092 12.8698 26.6243 12.4124C26.2904 12.0161 25.6982 11.9652 25.3012 12.2981C24.9041 12.6314 24.8528 13.2224 25.1867 13.6187C25.6886 14.2145 26.279 14.6298 26.9046 14.8392V15.9331C26.9046 16.4509 27.3251 16.8702 27.8436 16.8702C28.3621 16.8702 28.7826 16.4509 28.7826 15.9331V14.8348C29.8757 14.4478 30.6609 13.4059 30.6609 12.1842C30.6609 10.6337 29.3972 9.37244 27.8436 9.37244C27.3259 9.37244 26.9046 8.95203 26.9046 8.4353C26.9046 7.91858 27.3259 7.4978 27.8436 7.4978C28.1764 7.4978 28.5276 7.66736 28.8593 7.98779C29.2321 8.34778 29.8265 8.33789 30.1872 7.96619C30.5479 7.59412 30.538 7.00086 30.1655 6.64087C29.6889 6.18054 29.2119 5.92017 28.7826 5.77808V4.6864C28.7826 4.16858 28.3621 3.7489 27.8436 3.7489C27.3251 3.7489 26.9046 4.16858 26.9046 4.6864Z" fill="#8AB1F9"/>
</g>
<defs>
<clipPath id="clip0">
<rect width="48" height="48" fill="white"/>
</clipPath>
</defs>
</svg>
