<svg width="48" height="48" viewBox="0 0 48 48" fill="none" xmlns="http://www.w3.org/2000/svg">
<path d="M18.9454 14.0741C18.762 14.1534 18.5788 14.2373 18.4009 14.3234C18.3345 14.3556 18.275 14.4006 18.2259 14.4559C18.1768 14.5111 18.1391 14.5754 18.1148 14.6452C18.0906 14.715 18.0804 14.7889 18.0847 14.8626C18.089 14.9364 18.1079 15.0086 18.1401 15.0751C18.1723 15.1415 18.2173 15.201 18.2725 15.2501C18.3277 15.2992 18.3921 15.3369 18.4619 15.3612C18.5317 15.3854 18.6056 15.3956 18.6793 15.3913C18.7531 15.387 18.8252 15.3681 18.8917 15.3359C19.0548 15.2569 19.2228 15.1799 19.3913 15.1073C19.5283 15.0481 19.6362 14.937 19.6912 14.7983C19.7463 14.6597 19.744 14.5048 19.6848 14.3679C19.6257 14.2309 19.5146 14.123 19.3759 14.068C19.2373 14.0129 19.0824 14.0152 18.9454 14.0743V14.0741Z" fill="#8AB1F9"/>
<path d="M16.7926 15.2446C15.4061 16.1645 14.2136 17.3479 13.2831 18.7274C13.2416 18.7887 13.2126 18.8576 13.1977 18.9301C13.1829 19.0027 13.1825 19.0775 13.1966 19.1502C13.2107 19.2228 13.239 19.292 13.28 19.3538C13.3209 19.4155 13.3736 19.4685 13.435 19.5098C13.4965 19.5511 13.5655 19.5799 13.6381 19.5944C13.7107 19.609 13.7855 19.6091 13.8581 19.5947C13.9308 19.5803 13.9999 19.5517 14.0614 19.5106C14.123 19.4694 14.1758 19.4165 14.2169 19.3549C15.0657 18.0971 16.1533 17.0184 17.418 16.1798C17.542 16.0969 17.628 15.9681 17.657 15.8218C17.6861 15.6755 17.6558 15.5236 17.5729 15.3996C17.49 15.2755 17.3612 15.1895 17.2149 15.1605C17.0685 15.1314 16.9167 15.1617 16.7926 15.2446Z" fill="#8AB1F9"/>
<path d="M6.53979 44.2312C6.53978 44.56 6.63724 44.8813 6.81987 45.1547C7.00249 45.428 7.26208 45.6411 7.56579 45.7669C7.8695 45.8927 8.2037 45.9256 8.52612 45.8615C8.84854 45.7973 9.14471 45.639 9.37716 45.4066C9.60962 45.1741 9.76792 44.878 9.83205 44.5555C9.89618 44.2331 9.86325 43.8989 9.73744 43.5952C9.61163 43.2915 9.39858 43.0319 9.12524 42.8493C8.85189 42.6667 8.53053 42.5692 8.20179 42.5692C7.76116 42.5697 7.33871 42.745 7.02713 43.0566C6.71555 43.3681 6.54029 43.7906 6.53979 44.2312ZM8.73889 44.2312C8.7389 44.3374 8.70742 44.4413 8.64842 44.5296C8.58941 44.618 8.50553 44.6868 8.40739 44.7275C8.30926 44.7682 8.20126 44.7788 8.09707 44.7581C7.99288 44.7374 7.89717 44.6862 7.82204 44.6111C7.74692 44.536 7.69576 44.4403 7.67503 44.3361C7.6543 44.2319 7.66493 44.1239 7.70557 44.0258C7.74622 43.9276 7.81506 43.8438 7.90339 43.7847C7.99172 43.7257 8.09556 43.6942 8.20179 43.6942C8.34418 43.6943 8.48071 43.751 8.58141 43.8516C8.6821 43.9523 8.73874 44.0888 8.73889 44.2312Z" fill="#8AB1F9"/>
<path d="M44.5726 22.6875H43.3883C41.6726 15.2 34.9686 9.64828 26.9061 8.83556V6.93844C27.3479 6.60604 27.707 6.17631 27.9558 5.68261C28.2046 5.18891 28.3362 4.64453 28.3405 4.09172C28.3405 3.15969 27.9703 2.26583 27.3112 1.60679C26.6522 0.947746 25.7583 0.577499 24.8263 0.577499C23.8943 0.577499 23.0004 0.947746 22.3414 1.60679C21.6823 2.26583 21.3121 3.15969 21.3121 4.09172C21.3121 5.26172 21.8435 6.29934 22.781 6.93844V8.83566C14.6249 9.64847 7.93441 15.2006 6.21869 22.6875H5.07409C3.92575 22.6875 2.94944 23.5838 2.91484 24.7312C2.90653 25.0144 2.95526 25.2964 3.05812 25.5604C3.16099 25.8244 3.31589 26.065 3.51361 26.2679C3.71134 26.4708 3.94785 26.6319 4.20908 26.7416C4.47032 26.8512 4.75093 26.9072 5.03425 26.9062H5.14422L5.50984 28.8857C5.61162 29.4361 5.9031 29.9334 6.33359 30.2911C6.76407 30.6489 7.30633 30.8444 7.86606 30.8438H14.2625C13.6008 31.1116 12.9768 31.4646 12.4063 31.8937C12.394 31.9031 12.382 31.9125 12.3706 31.9231L11.2338 32.9351C10.8094 33.312 10.3078 33.5915 9.76413 33.754L9.74191 33.6708C9.6837 33.4782 9.56548 33.3092 9.40449 33.1886C9.24349 33.0679 9.04816 33.0018 8.84697 33H2.24416C2.09879 33.0027 1.95595 33.0385 1.82655 33.1048C1.69714 33.1711 1.58458 33.266 1.49746 33.3824C1.41035 33.4988 1.35097 33.6336 1.32386 33.7764C1.29676 33.9193 1.30264 34.0664 1.34106 34.2067L4.82978 46.741C4.88458 46.9392 5.00225 47.1143 5.16509 47.2399C5.32793 47.3655 5.52715 47.4348 5.73278 47.4375H12.7194C12.8664 47.4358 13.011 47.4 13.1418 47.3328C13.2725 47.2656 13.3859 47.169 13.4729 47.0504C13.5598 46.9319 13.6181 46.7948 13.6429 46.6499C13.6678 46.505 13.6586 46.3563 13.6161 46.2156L12.6913 43.1801L16.0311 41.0677C16.4711 40.8246 16.987 40.7579 17.4743 40.881C17.4859 40.8839 17.4977 40.8862 17.5095 40.8884L24.3728 42.1521C24.6843 42.2084 24.9987 42.2481 25.3144 42.271C27.2706 42.3978 29.2121 41.8585 30.8226 40.7409L41.8323 33.1816C41.9505 33.1004 42.0333 32.9772 42.0637 32.8371C42.0941 32.697 42.0698 32.5506 41.9958 32.4277C41.7345 31.9922 41.3763 31.6227 40.949 31.348C40.5218 31.0733 40.0369 30.9008 39.5322 30.8438H41.6837C42.2337 30.8425 42.7667 30.6527 43.1936 30.3058C43.6205 29.9589 43.9154 29.4761 44.0292 28.9379L44.4516 26.9062H44.533C45.6813 26.9062 46.6577 26.0099 46.6923 24.8625C46.7006 24.5793 46.6518 24.2973 46.5489 24.0333C46.446 23.7693 46.2911 23.5287 46.0934 23.3258C45.8956 23.1229 45.6591 22.9618 45.3978 22.8521C45.1365 22.7425 44.8559 22.6865 44.5726 22.6875ZM22.4141 4.09172C22.4141 3.61911 22.5542 3.15711 22.8168 2.76415C23.0793 2.37118 23.4525 2.0649 23.8891 1.88403C24.3258 1.70316 24.8062 1.65584 25.2697 1.74803C25.7333 1.84023 26.159 2.06781 26.4932 2.40199C26.8274 2.73618 27.055 3.16195 27.1472 3.62548C27.2394 4.08901 27.1921 4.56946 27.0112 5.00609C26.8303 5.44272 26.524 5.81591 26.1311 6.07846C25.7381 6.34101 25.2761 6.48114 24.8035 6.48112C24.17 6.48041 23.5627 6.22843 23.1147 5.78049C22.6668 5.33254 22.4148 4.72521 22.4141 4.09172ZM25.7811 7.47966V8.75391C25.4061 8.73994 25.156 8.73225 24.8436 8.73225C24.5313 8.73225 24.1874 8.73994 23.9061 8.75391V7.47966C24.2114 7.56458 24.5268 7.60713 24.8436 7.60612C25.16 7.60094 25.4747 7.55849 25.7811 7.47966ZM24.8035 9.85725C33.1754 9.85725 40.3881 15.2126 42.2316 22.6875H7.37519C9.21916 15.2132 16.4335 9.85725 24.8035 9.85725ZM5.87528 46.3125L2.49091 34.125H8.71863L12.4686 46.3125H5.87528ZM40.7061 32.59L30.1856 39.8135C28.7854 40.7865 27.0972 41.2572 25.3955 41.1489C25.1203 41.129 24.8464 41.0944 24.5749 41.0452L17.7299 39.7849C16.9648 39.5962 16.1566 39.706 15.4695 40.0918C15.4607 40.0967 15.4519 40.1018 15.4434 40.1072L12.3472 42.0646L10.0986 34.8302C10.7954 34.6194 11.438 34.2595 11.9818 33.7756L13.101 32.7793C14.1319 32.0048 15.3566 31.5297 16.6402 31.4065C17.9238 31.2832 19.2165 31.5165 20.376 32.0807L20.8468 32.3085C21.6604 32.7007 22.5517 32.905 23.4549 32.9062H28.0205C28.6688 32.9071 29.2972 33.1298 29.8011 33.5375C30.3051 33.9452 30.6543 34.5131 30.7906 35.1469L27.546 35.0001C26.3399 34.9456 25.1313 35.0014 23.9354 35.1667C23.8622 35.1769 23.7917 35.2013 23.728 35.2387C23.6643 35.2761 23.6085 35.3256 23.564 35.3846C23.5194 35.4435 23.4868 35.5106 23.4682 35.5821C23.4496 35.6536 23.4452 35.728 23.4553 35.8012C23.4655 35.8744 23.4899 35.9448 23.5273 36.0086C23.5647 36.0723 23.6142 36.128 23.6731 36.1726C23.732 36.2172 23.7992 36.2497 23.8707 36.2684C23.9421 36.287 24.0166 36.2914 24.0898 36.2812C25.2178 36.1253 26.3577 36.0727 27.4953 36.1238L31.3898 36.3001C31.3983 36.3001 31.4069 36.3008 31.4153 36.3008C31.5645 36.3008 31.7076 36.2415 31.8131 36.136C31.9186 36.0305 31.9778 35.8874 31.9778 35.7383C31.9778 35.6653 31.9755 35.5929 31.9715 35.5209L38.1182 32.2116C38.5327 31.9871 39.0086 31.9027 39.475 31.9709C39.9414 32.0391 40.3733 32.2563 40.7061 32.59ZM20.3591 30.8438H28.589L26.8651 31.7812H23.4549C22.7214 31.7802 21.9975 31.6143 21.3367 31.2957L20.8658 31.068C20.6986 30.9872 20.5297 30.9125 20.3591 30.8438ZM30.3199 32.5206C29.9209 32.234 29.4719 32.0245 28.9959 31.9028L29.9694 31.3735C29.9739 31.3711 29.9788 31.3686 29.9827 31.366C30.7309 30.9323 31.6812 30.9525 32.4619 31.366L30.3199 32.5206ZM34.5843 31.5007C35.1678 31.209 35.8968 31.4326 36.3854 31.8676L31.7354 34.3737C31.5984 34.0036 31.4069 33.656 31.1672 33.3425L34.5843 31.5007ZM36.9199 30.8438H38.781C38.3615 30.8921 37.9552 31.0201 37.5839 31.221L37.4181 31.3104C37.2702 31.1365 37.1031 30.98 36.9199 30.8438ZM44.5726 25.7812H14.6249C14.4757 25.7812 14.3326 25.8405 14.2271 25.946C14.1216 26.0515 14.0624 26.1946 14.0624 26.3438C14.0624 26.4929 14.1216 26.636 14.2271 26.7415C14.3326 26.847 14.4757 26.9062 14.6249 26.9062H43.303L42.928 28.7092C42.8676 28.9945 42.7111 29.2505 42.4846 29.4343C42.2581 29.618 41.9753 29.7185 41.6837 29.7188H7.86606C7.56936 29.7193 7.28184 29.6159 7.05355 29.4263C6.82526 29.2368 6.67066 28.9732 6.61666 28.6815L6.28844 26.9062H11.4374C11.5866 26.9062 11.7296 26.847 11.8351 26.7415C11.9406 26.636 11.9999 26.4929 11.9999 26.3438C11.9999 26.1946 11.9406 26.0515 11.8351 25.946C11.7296 25.8405 11.5866 25.7812 11.4374 25.7812H5.05563C4.79143 25.7843 4.53665 25.6832 4.34638 25.4999C4.1561 25.3166 4.04562 25.0658 4.03881 24.8017C4.03856 24.6712 4.06418 24.5419 4.1142 24.4214C4.16421 24.3008 4.23762 24.1914 4.33019 24.0994C4.42276 24.0074 4.53265 23.9347 4.65349 23.8855C4.77434 23.8362 4.90376 23.8114 5.03425 23.8125H44.5515C44.8157 23.8095 45.0704 23.9105 45.2607 24.0938C45.4509 24.2771 45.5614 24.528 45.5682 24.7921C45.5685 24.9226 45.5428 25.0519 45.4928 25.1724C45.4428 25.293 45.3694 25.4024 45.2768 25.4944C45.1842 25.5864 45.0743 25.6591 44.9534 25.7084C44.8325 25.7576 44.7031 25.7824 44.5726 25.7812Z" fill="#8AB1F9"/>
</svg>
