<svg width="48" height="48" viewBox="0 0 48 48" fill="none" xmlns="http://www.w3.org/2000/svg">
<g clip-path="url(#clip0)">
<path d="M40.9706 7.02942C36.4376 2.49646 30.4105 0 24 0C17.5895 0 11.5624 2.49646 7.02942 7.02942C2.49646 11.5624 0 17.5895 0 24C0 30.4105 2.49646 36.4376 7.02942 40.9706C11.5624 45.5035 17.5895 48 24 48C30.4105 48 36.4376 45.5035 40.9706 40.9706C45.5035 36.4376 48 30.4105 48 24C48 17.5895 45.5035 11.5624 40.9706 7.02942V7.02942ZM24 44.25C12.8342 44.25 3.75 35.1658 3.75 24C3.75 12.8342 12.8342 3.75 24 3.75C35.1658 3.75 44.25 12.8342 44.25 24C44.25 35.1658 35.1658 44.25 24 44.25V44.25ZM25.875 22.1232H34.3125V25.8732H25.875V34.3107H22.125V25.8732H13.6875V22.1232H22.125V13.6857H25.875V22.1232Z" fill="#8AB1F9"/>
</g>
<defs>
<clipPath id="clip0">
<rect width="48" height="48" fill="white"/>
</clipPath>
</defs>
</svg>
